<?xml version="1.0" encoding="UTF-8"?>
<svg xmlns="http://www.w3.org/2000/svg" xmlns:xlink="http://www.w3.org/1999/xlink" viewBox="0 0 200 160" height="160px"
  width="200px">
  <path
    d="M45.67,.27c12.36,0,24.72,.15,37.07-.07,5.43-.09,9.13,1.97,11.85,6.6,5.3,9.02,10.8,17.93,16.22,26.88,4.29,7.08,8.82,7.31,13.24,.43,5.88-9.16,11.65-18.39,17.24-27.73C143.94,1.97,147.36-.09,152.57,0c12.15,.21,24.3-.02,36.44,.1,7.59,.08,9.44,3.4,5.4,9.95-13.51,21.91-27.21,43.71-40.73,65.62-2.61,4.23-6.71,4.88-10.89,4.95-12.14,.22-24.3,.39-36.44,.07-6-.16-9.85,1.73-12.38,7.31-1.8,3.96-4.67,7.43-6.96,11.18-4.54,7.43-2.38,11.58,6.25,11.63,21.57,.12,43.15,.35,64.72,.02,8.24-.13,13.79,2.54,17.85,9.91,5.34,9.7,11.59,18.9,17.35,28.38,3.57,5.88,1.9,9.56-4.86,9.59-25.97,.14-51.94-.02-77.91-.13-4.67-.02-7.68-2.75-9.98-6.59-5.15-8.62-10.44-17.17-15.59-25.79-4.66-7.78-9.8-7.94-14.58-.32-5.22,8.34-10.44,16.67-15.57,25.07-2.29,3.76-5.47,5.48-9.88,5.45-12.57-.09-25.14,.08-37.7-.07-6.94-.08-8.97-3.39-5.37-9.23,13.85-22.45,27.94-44.74,41.94-67.1,2.28-3.65,5.87-4.42,9.81-4.42,12.15,0,24.3-.25,36.44,.09,5.88,.16,10.06-1.28,12.6-6.97,1.52-3.41,3.9-6.43,5.85-9.66,4.14-6.84,2.06-10.71-6.06-10.77-19.27-.14-38.54-.09-57.81-.12-3.77,0-7.54-.02-11.31-.08-5.44-.09-9.45-2.31-12.31-7.21C14.8,30.38,8.24,20.15,2.07,9.7-1.7,3.3,0,.26,7.34,.19c12.78-.14,25.55-.04,38.33-.04v.12Z" />
</svg>